<?xml version="1.0" encoding="iso-8859-1"?>
<!-- Generator: Adobe Illustrator 18.0.0, SVG Export Plug-In . SVG Version: 6.00 Build 0)  -->
<!DOCTYPE svg PUBLIC "-//W3C//DTD SVG 1.1//EN" "http://www.w3.org/Graphics/SVG/1.1/DTD/svg11.dtd">
<svg version="1.1" id="Capa_1" xmlns="http://www.w3.org/2000/svg" xmlns:xlink="http://www.w3.org/1999/xlink" x="0px" y="0px"
	 viewBox="0 0 404.015 404.015" style="enable-background:new 0 0 404.015 404.015;" xml:space="preserve">
<g>
	<path d="M401.817,43.812L360.201,2.197c-2.93-2.929-7.678-2.929-10.607,0L294.44,57.351c-2.42,2.42-2.834,6.081-1.255,8.933
		l-67.502,67.503c-27.464-24.099-69.426-23.065-95.625,3.134c-3.509,3.509-6.644,7.385-9.316,11.52
		c-2.581,3.992-4.771,8.303-6.517,12.825c-4.816,12.548-17.133,21.281-30.647,21.729c-21.993,0.732-42.677,9.708-58.242,25.273
		C8.999,224.605,0.002,246.327,0.002,269.43c-0.008,23.1,8.989,44.823,25.333,61.167l48.084,48.083
		c16.338,16.337,38.06,25.335,61.165,25.335c23.104,0,44.827-8.998,61.165-25.335c7.892-7.892,14.091-17.057,18.429-27.248
		c4.18-9.845,6.482-20.272,6.844-30.995c0.448-13.514,9.181-25.83,21.729-30.646c9.152-3.514,17.341-8.844,24.337-15.841
		c13.21-13.209,20.494-30.785,20.512-49.501c-0.008-17.155-6.153-33.354-17.369-46.116l67.503-67.503
		c1.125,0.622,2.374,0.939,3.625,0.939c1.919,0,3.839-0.732,5.304-2.197l55.154-55.154C404.745,51.49,404.745,46.74,401.817,43.812z
		 M201.099,226.253c-2.325-5.063-5.551-9.7-9.593-13.742c-4.043-4.042-8.679-7.268-13.742-9.592L303.582,77.1l23.335,23.335
		L201.099,226.253z M272.6,224.447c-0.014,14.704-5.737,28.518-16.118,38.898c-5.501,5.501-11.93,9.688-19.106,12.443
		c-18.386,7.058-30.689,24.388-31.346,44.148c-0.298,8.869-2.202,17.493-5.655,25.627c-3.58,8.409-8.705,15.983-15.232,22.51
		c-13.504,13.504-31.46,20.941-50.558,20.941c-19.099,0-37.054-7.437-50.558-20.941l-48.084-48.083
		c-13.51-13.51-20.947-31.465-20.94-50.559c0-19.099,7.437-37.054,20.94-50.558c12.864-12.864,29.958-20.282,48.134-20.887
		c19.764-0.657,37.095-12.961,44.147-31.334c1.371-3.552,3.091-6.939,5.113-10.068c2.101-3.248,4.565-6.295,7.328-9.058
		c10.389-10.389,24.2-16.11,38.891-16.11c13.146,0,25.579,4.594,35.495,13.001l-56.779,56.779c-2.009,2.01-2.71,4.982-1.811,7.678
		c0.9,2.696,3.247,4.651,6.061,5.051c7.003,0.994,13.358,4.172,18.377,9.191c5.021,5.02,8.199,11.375,9.192,18.378
		c0.399,2.814,2.354,5.16,5.051,6.06c0.778,0.26,1.579,0.386,2.374,0.386c1.958,0,3.875-0.767,5.305-2.197l56.778-56.778
		C268,198.876,272.594,211.307,272.6,224.447z M341.359,93.662L310.35,62.654l44.548-44.548l31.009,31.009L341.359,93.662z"/>
	<path d="M110.823,231.39c-17.039,17.039-17.039,44.764,0,61.803c8.521,8.52,19.711,12.78,30.902,12.78s22.382-4.26,30.902-12.78
		c17.039-17.039,17.039-44.764,0-61.803C155.586,214.351,127.864,214.351,110.823,231.39z M162.02,282.587
		c-11.189,11.19-29.4,11.19-40.59,0c-11.191-11.191-11.191-29.399,0-40.59c5.595-5.595,12.945-8.393,20.295-8.393
		s14.7,2.798,20.295,8.393C173.211,253.187,173.211,271.396,162.02,282.587z"/>
	<path d="M73.773,289.939c-2.93-2.929-7.678-2.929-10.607,0c-2.929,2.929-2.929,7.678,0,10.606l40.306,40.305
		c1.465,1.464,3.385,2.197,5.304,2.197s3.839-0.732,5.304-2.197c2.929-2.929,2.929-7.678,0-10.606L73.773,289.939z"/>
</g>
<g>
</g>
<g>
</g>
<g>
</g>
<g>
</g>
<g>
</g>
<g>
</g>
<g>
</g>
<g>
</g>
<g>
</g>
<g>
</g>
<g>
</g>
<g>
</g>
<g>
</g>
<g>
</g>
<g>
</g>
</svg>
